<svg id="visual" viewBox="0 0 900 600" width="900" height="600" xmlns="http://www.w3.org/2000/svg" xmlns:xlink="http://www.w3.org/1999/xlink" version="1.1"><rect x="0" y="0" width="900" height="600" fill="#d6d5ef"></rect><g transform="translate(37.97024960698084 -100.16727275010348)"><path d="M222.9 -285.2C313.6 -241 428.8 -208.9 461.2 -142.1C493.6 -75.3 443.2 26.2 416.2 143.3C389.2 260.4 385.6 393.1 320.2 479.5C254.7 565.9 127.4 606 20.6 577.6C-86.2 549.3 -172.4 452.6 -246.3 369C-320.1 285.3 -381.7 214.7 -445.6 120.6C-509.4 26.5 -575.7 -91.1 -535.3 -161.2C-495 -231.3 -348 -254 -241 -292.9C-134 -331.8 -67 -386.9 -0.4 -386.3C66.1 -385.7 132.3 -329.4 222.9 -285.2" fill="#040566"></path></g></svg>